<svg width="33" height="33" viewBox="0 0 33 33" fill="none" xmlns="http://www.w3.org/2000/svg">
<path d="M10.1168 0.654419C4.92318 0.654419 0.697266 4.77766 0.697266 9.8434V22.9673C0.697266 28.0325 4.92567 32.1539 10.1206 32.1539H23.5793C28.7736 32.1539 33.0001 28.0306 33.0001 22.9649V9.83971C33.0001 4.77523 28.7717 0.654419 23.5768 0.654419H10.1168ZM26.5395 5.69433C27.2528 5.69433 27.8317 6.2588 27.8317 6.95431C27.8317 7.64982 27.2528 8.21429 26.5395 8.21429C25.8263 8.21429 25.2474 7.64982 25.2474 6.95431C25.2474 6.2588 25.8263 5.69433 26.5395 5.69433ZM16.8487 8.21429C21.4809 8.21429 25.2474 11.8871 25.2474 16.4041C25.2474 20.9212 21.4803 24.594 16.8487 24.594C12.2165 24.594 8.44995 20.9205 8.44995 16.4041C8.44995 11.8878 12.2165 8.21429 16.8487 8.21429ZM16.8487 10.7342C13.6371 10.7342 11.0342 13.2725 11.0342 16.4041C11.0342 19.5358 13.6371 22.074 16.8487 22.074C20.0602 22.074 22.6632 19.5358 22.6632 16.4041C22.6632 13.2725 20.0602 10.7342 16.8487 10.7342Z" fill="#94D2BD"/>
</svg>
