<svg width="47" height="46" viewBox="0 0 47 46" fill="none" xmlns="http://www.w3.org/2000/svg">
<path d="M15.9057 35.0404L13.2698 38.6916C11.3345 38.63 4.34556 37.4204 1.7843 33.0917C1.7843 23.863 5.51133 12.9376 7.33752 11.308C11.122 8.37368 17.2897 7.89209 17.2897 7.89209C17.2897 7.89209 17.8812 8.92247 17.9271 10.1153C20.2759 9.66726 22.2744 9.57206 23.3195 9.57206C24.3762 9.57206 26.4034 9.66726 28.7809 10.1321C28.8153 8.92807 29.3494 7.89209 29.3494 7.89209C29.3494 7.89209 35.5171 8.37368 39.3016 11.308C41.1277 12.9376 44.8548 23.863 44.8548 33.0917C42.2993 37.4204 35.3046 38.63 33.3693 38.6916L30.7334 35.0404C28.7062 35.5332 26.2311 35.8916 23.3195 35.8916C20.408 35.8916 17.9329 35.5332 15.9057 35.0404Z" fill="#94D2BD"/>
<path d="M16.7154 28.6118C18.6184 28.6118 20.1611 26.9821 20.1611 24.9718C20.1611 22.9616 18.6184 21.3319 16.7154 21.3319C14.8124 21.3319 13.2698 22.9616 13.2698 24.9718C13.2698 26.9821 14.8124 28.6118 16.7154 28.6118Z" fill="#001219"/>
<path d="M29.9237 28.6118C31.8266 28.6118 33.3693 26.9821 33.3693 24.9718C33.3693 22.9616 31.8266 21.3319 29.9237 21.3319C28.0207 21.3319 26.478 22.9616 26.478 24.9718C26.478 26.9821 28.0207 28.6118 29.9237 28.6118Z" fill="#001219"/>
<path d="M33.2235 38.976L30.4383 35.116L30.908 34.794L33.5129 38.4043C35.3753 38.2945 42.0794 37.1219 44.5671 33.0155C44.5464 24.05 40.8986 13.1084 39.1052 11.5124C35.8261 8.97399 30.6094 8.30424 29.5257 8.19C29.3759 8.54112 29.0623 9.3755 29.0623 10.272H28.488C28.488 8.96111 29.0681 7.81481 29.0927 7.76665L29.1795 7.59753L29.3724 7.61265C29.6274 7.63281 35.6687 8.1368 39.4779 11.0868C41.4017 12.7982 45.142 23.8076 45.142 33.0917V33.1667L45.104 33.2316C42.417 37.7804 35.172 38.9161 33.3785 38.9715L33.2235 38.976Z" fill="#001219"/>
<path d="M16.7154 28.8917C14.6572 28.8917 12.9827 27.1334 12.9827 24.9718C12.9827 22.8102 14.6572 21.0519 16.7154 21.0519C18.7736 21.0519 20.4482 22.8102 20.4482 24.9718C20.4482 27.1334 18.7736 28.8917 16.7154 28.8917ZM16.7154 21.6119C14.9742 21.6119 13.5569 23.1188 13.5569 24.9718C13.5569 26.8248 14.9742 28.3318 16.7154 28.3318C18.4566 28.3318 19.8739 26.8248 19.8739 24.9718C19.8739 23.1188 18.4566 21.6119 16.7154 21.6119Z" fill="#001219"/>
<path d="M29.9237 28.8917C27.8655 28.8917 26.1909 27.1334 26.1909 24.9718C26.1909 22.8102 27.8655 21.0519 29.9237 21.0519C31.9819 21.0519 33.6565 22.8102 33.6565 24.9718C33.6565 27.1334 31.9819 28.8917 29.9237 28.8917ZM29.9237 21.6119C28.1825 21.6119 26.7652 23.1188 26.7652 24.9718C26.7652 26.8248 28.1825 28.3318 29.9237 28.3318C31.6649 28.3318 33.0822 26.8248 33.0822 24.9718C33.0822 23.1188 31.6649 21.6119 29.9237 21.6119Z" fill="#001219"/>
<path d="M13.4157 38.9761L13.2606 38.9716C11.4677 38.9161 4.22269 37.7805 1.53509 33.2317L1.49719 33.1667V33.0917C1.49719 23.807 5.23801 12.7976 7.14689 11.0997C10.9704 8.13739 17.0118 7.6334 17.2667 7.61324L17.4499 7.59924L17.5395 7.75548C17.5676 7.80364 18.2223 8.95442 18.2223 10.2726H17.648C17.648 9.37105 17.2886 8.53163 17.122 8.19003C16.0613 8.30147 10.8205 8.96786 7.51787 11.5259C5.7405 13.109 2.09214 24.0501 2.07147 33.0161C4.55922 37.1225 11.2639 38.2945 13.1256 38.4049L15.7305 34.7946L16.2003 35.1166L13.4157 38.9761Z" fill="#001219"/>
<path d="M23.3195 36.1716C13.6516 36.1716 8.86565 32.3491 8.66638 32.1861L9.03564 31.7566C9.08273 31.7958 13.8773 35.6116 23.3195 35.6116C32.7617 35.6116 37.5563 31.7958 37.6034 31.7572L37.9727 32.1867C37.7734 32.3491 32.9874 36.1716 23.3195 36.1716Z" fill="#001219"/>
<path d="M36.2022 13.1695C31.0142 10.0123 24.5605 9.8521 23.3195 9.8521C22.0785 9.8521 15.6248 10.0123 10.4368 13.1695L10.1331 12.6941C15.4531 9.45619 22.0509 9.29211 23.3195 9.29211C24.5881 9.29211 31.1859 9.45619 36.506 12.6946L36.2022 13.1695Z" fill="#001219"/>
</svg>
